<?xml version="1.0" encoding="utf-8"?>
<!-- Generator: Adobe Illustrator 26.0.2, SVG Export Plug-In . SVG Version: 6.00 Build 0)  -->
<svg version="1.1" id="Layer_1" xmlns="http://www.w3.org/2000/svg" xmlns:xlink="http://www.w3.org/1999/xlink" x="0px" y="0px"
	 viewBox="0 0 177 52" style="enable-background:new 0 0 177 52;" xml:space="preserve">
<style type="text/css">
	.st0{fill:#FFFFFF;}
</style>
<path class="st0" d="M7.8,23.4l2.7-1.3l4.2-6.3l1.3-0.5l1.4,6.4l-1.8,0.3l-1.4-2.6l-1,4.1h4.5l4.7,1.2l1.9-1.2l3.2,3.3l1.4-6.1
	l2.2,2.3l1.4-1.9l2.2-0.6l3.3-3.1l0.5-1.5l2.7,0.4l1.1,1.5l-2,4.2l4.9-2.5v-1.2l1.9-0.4l2.1,2.1l2.1-2.5v-1.7l3.3-2.4l1.4-2h2.1
	l3.8-7.8L64.9,0l1.2,1.9l-1.9,2.4l0.7,1.6l1.8,0.3l1.5,6.5v5.4l2.6,3.6l1.3,5l-4.5-2.9l-2-8.3l-1.2,0.3l-0.2,5.6L61,26.7L60,34.8
	l2.2,0.5l0.9-1.1l2.1,2.4l1.6,7.3l-0.2,4.7h-2.1L64,42.1l-1.5,2l-3.2-0.7l-2.6-2.2l-2.9,1l0.2,4.7l-2.3,0.6l-3.4,2.6l-4.1-0.5
	l-1.6-1L40,49.1l0.9,1l-2.1,1.2l-1.6-0.8L34.1,52l-4.7-2.4l-1.8-4.2L26,45.6l-1.8-1.5L24.1,43l-5.7-0.6l-0.9,3.1l-3.6-1.7l-1.8-3.1
	H8.2l-0.4,4.9l-2.2,0.7l-1.1,4.4l-0.9-0.8L0,40.7l4.3-2.1l-0.7-4.1l-0.7-4.2l1.9-2.7L4.2,26l2.6-2.8L7.8,23.4z M64.7,33.7l3.9,5.9
	l1.3-0.5l-1.6-2.4l-3.6-3.8V33.7z M24.5,21.6v-1.7l3-2.2l2.6-1.3h-3L24.4,18l-1.6,1.5v2.2H24.5z"/>
</svg>
